<?xml version="1.0" encoding="UTF-8"?>
<svg width="30px" height="28px" viewBox="0 0 30 28" version="1.1" xmlns="http://www.w3.org/2000/svg" xmlns:xlink="http://www.w3.org/1999/xlink">
    <!-- Generator: Sketch 41.2 (35397) - http://www.bohemiancoding.com/sketch -->
    <title>noun_945298_cc</title>
    <desc>Created with Sketch.</desc>
    <defs></defs>
    <g id="Page-1" stroke="none" stroke-width="1" fill="none" fill-rule="evenodd">
        <g id="Desktop-HD-Copy-5" transform="translate(-71.000000, -258.000000)" fill="#21D370">
            <g id="Group-4" transform="translate(71.000000, 253.000000)">
                <g id="noun_945298_cc" transform="translate(0.000000, 5.000000)">
                    <g id="Group">
                        <g transform="translate(0.081550, 0.096456)" id="Shape">
                            <path d="M26.5118881,19.5932426 C25.0615621,19.5932426 23.8808496,20.7689053 23.8808496,22.2130406 L23.8808496,27.4836774 C23.8808496,27.684399 23.7361938,27.7662854 23.6737972,27.788894 C23.6140726,27.8142656 23.4551589,27.8595306 23.3105031,27.7182505 L16.598011,21.0345534 C15.6642197,20.1047681 14.4239402,19.5932426 13.1069992,19.5932426 L2.72188946,19.5932426 C1.22042385,19.5932426 0,18.3780386 0,16.8830373 L0,2.71021208 C0,1.21520401 1.22042385,0 2.72188946,0 L26.5148069,0 C28.0162725,0 29.2366963,1.21520401 29.2366963,2.71021208 L29.2366963,16.8830373 C29.2337776,18.3780386 28.0133537,19.5932426 26.5118881,19.5932426 Z"></path>
                        </g>
                    </g>
                </g>
            </g>
        </g>
    </g>
</svg>