<?xml version="1.0" encoding="UTF-8"?>
<svg width="33px" height="32px" viewBox="0 0 33 32" version="1.1" xmlns="http://www.w3.org/2000/svg" xmlns:xlink="http://www.w3.org/1999/xlink">
    <!-- Generator: Sketch 41.2 (35397) - http://www.bohemiancoding.com/sketch -->
    <title>icon-add</title>
    <desc>Created with Sketch.</desc>
    <defs></defs>
    <g id="Page-1" stroke="none" stroke-width="1" fill="none" fill-rule="evenodd">
        <g id="Desktop-HD-Copy" transform="translate(-119.000000, -525.000000)" fill="#FFFFFF">
            <g id="Group-9" transform="translate(63.000000, 491.000000)">
                <g id="Group-6" transform="translate(23.000000, 23.000000)">
                    <g id="icon-add" transform="translate(33.000000, 11.000000)">
                        <g id="Group">
                            <g transform="translate(0.000000, 0.535433)" id="Shape">
                                <path d="M16.5,0 C14.8919294,0 13.5882353,1.22702858 13.5882353,2.74063636 L13.5882353,12.7896364 L2.91176471,12.7896364 C1.30364559,12.7896364 0,14.016601 0,15.5302499 C0,17.043812 1.30364559,18.2708863 2.91176471,18.2708863 L13.5882353,18.2708863 L13.5882353,28.3199319 C13.5882353,29.8335397 14.8919294,31.0605683 16.5,31.0605683 C18.1081676,31.0605683 19.4117647,29.8335397 19.4117647,28.3199319 L19.4117647,18.2708863 L30.0882353,18.2708863 C31.6963544,18.2708863 33,17.043812 33,15.5302499 C33,14.016601 31.6963544,12.7896364 30.0882353,12.7896364 L19.4117647,12.7896364 L19.4117647,2.74063636 C19.4117647,1.22702858 18.1081676,0 16.5,0 Z"></path>
                            </g>
                        </g>
                    </g>
                </g>
            </g>
        </g>
    </g>
</svg>