<?xml version="1.0" encoding="UTF-8"?>
<svg width="30px" height="27px" viewBox="0 0 30 27" version="1.1" xmlns="http://www.w3.org/2000/svg" xmlns:xlink="http://www.w3.org/1999/xlink">
    <!-- Generator: Sketch 41.2 (35397) - http://www.bohemiancoding.com/sketch -->
    <title>noun_901947_cc</title>
    <desc>Created with Sketch.</desc>
    <defs></defs>
    <g id="Page-1" stroke="none" stroke-width="1" fill="none" fill-rule="evenodd">
        <g id="Desktop-HD-Copy-5" transform="translate(-212.000000, -257.000000)" fill="#21D370">
            <g id="Group-4" transform="translate(71.000000, 253.000000)">
                <g id="Group-7" transform="translate(141.000000, 0.000000)">
                    <g id="noun_901947_cc" transform="translate(0.000000, 4.000000)">
                        <g id="Group">
                            <g transform="translate(0.000000, 0.197774)" id="Shape">
                                <path d="M7.8094493,0.11704186 C5.88424,0.11704186 3.96163535,0.883237209 2.49937178,2.41355349 C-0.425186267,5.47413023 -0.421837429,10.3873581 2.49937178,13.4503566 L14.4276819,25.960062 C14.5448282,26.0839056 14.7077841,26.1540719 14.8782555,26.1540719 C15.0487269,26.1540719 15.2116829,26.0839056 15.3288291,25.960062 C19.3087361,21.7950078 23.2868763,17.6252093 27.2668143,13.460062 C30.1913724,10.3994326 30.1913724,5.48386977 27.2668143,2.42324341 C24.3422871,-0.637379845 19.5615423,-0.637448062 16.6369842,2.42324341 L14.8830927,4.25463876 L13.1292322,2.41355349 C11.6669377,0.88324031 9.7346586,0.11704186 7.8094493,0.11704186 L7.8094493,0.11704186 Z"></path>
                            </g>
                        </g>
                    </g>
                </g>
            </g>
        </g>
    </g>
</svg>