<?xml version="1.0" encoding="UTF-8"?>
<svg width="35px" height="35px" viewBox="0 0 35 35" version="1.1" xmlns="http://www.w3.org/2000/svg" xmlns:xlink="http://www.w3.org/1999/xlink">
    <!-- Generator: Sketch 41.2 (35397) - http://www.bohemiancoding.com/sketch -->
    <title>Shape</title>
    <desc>Created with Sketch.</desc>
    <defs></defs>
    <g id="Page-1" stroke="none" stroke-width="1" fill="none" fill-rule="evenodd">
        <g id="Desktop-HD-Copy" transform="translate(-1344.000000, -22.000000)" fill="#21D370">
            <g id="Group-11" transform="translate(0.000000, 1.000000)">
                <path d="M1361.5,21 C1351.83492,21 1344,28.8349233 1344,38.5 C1344,48.1650767 1351.83492,56 1361.5,56 C1371.16508,56 1379,48.1650767 1379,38.5 C1379,28.8349233 1371.16508,21 1361.5,21 Z M1370.62382,51.5521114 C1368.00368,53.27642 1364.86923,54.282427 1361.49856,54.282427 C1358.12788,54.282427 1354.99343,53.27642 1352.37329,51.5521114 C1351.2523,50.8145653 1350.22656,49.9456755 1349.31678,48.9661297 C1350.06443,46.3483945 1352.61529,44.7010639 1355.57028,43.7364326 C1355.57028,43.7364326 1358.77642,42.9502942 1358.77642,42.1963903 C1358.77642,41.2043355 1358.83896,39.9010007 1358.66192,39.731649 C1358.64075,39.7114422 1358.62054,39.6960466 1358.59648,39.6796888 C1356.58832,38.3263182 1354.71294,35.5724281 1354.71294,32.3860175 C1354.71294,27.8635564 1357.73337,23.7630313 1361.32487,23.7630313 L1361.67272,23.7630313 C1365.26423,23.7630313 1368.28465,27.8606697 1368.28465,32.3831308 C1368.28465,35.5695414 1366.40928,38.3205449 1364.40111,39.6739154 C1364.37706,39.6902733 1364.35685,39.6998955 1364.33568,39.7201023 C1364.15863,39.8899351 1364.22117,41.2043355 1364.22117,42.1963903 C1364.22117,42.7785369 1367.42731,43.7364326 1367.42731,43.7364326 C1370.4386,44.7414774 1372.94808,46.3589789 1373.6837,48.9627619 C1372.77296,49.943751 1371.74578,50.8140842 1370.62382,51.5521114 Z" id="Shape"></path>
            </g>
        </g>
    </g>
</svg>