<?xml version="1.0" encoding="UTF-8"?>
<svg width="30px" height="30px" viewBox="0 0 30 30" version="1.1" xmlns="http://www.w3.org/2000/svg" xmlns:xlink="http://www.w3.org/1999/xlink">
    <!-- Generator: Sketch 41.2 (35397) - http://www.bohemiancoding.com/sketch -->
    <title>noun_1014486_cc</title>
    <desc>Created with Sketch.</desc>
    <defs></defs>
    <g id="Page-1" stroke="none" stroke-width="1" fill="none" fill-rule="evenodd">
        <g id="Desktop-HD-Copy-5" transform="translate(-340.000000, -253.000000)">
            <g id="Group-4" transform="translate(71.000000, 253.000000)">
                <g id="Group-8" transform="translate(269.000000, 0.000000)">
                    <g id="noun_1014486_cc">
                        <g id="Group">
                            <g id="Shape">
                                <path d="M15,29.8076923 C18.8076923,29.8076923 22.5769231,28.3461538 25.4615385,25.4615385 C31.2307692,19.6923077 31.2307692,10.3076923 25.4615385,4.53846154 C19.6923077,-1.23076923 10.3076923,-1.23076923 4.53846154,4.53846154 C-1.23076923,10.3076923 -1.23076923,19.6923077 4.53846154,25.4615385 C7.42307692,28.3461538 11.1923077,29.8076923 15,29.8076923 Z" fill="#21D370"></path>
                                <path d="M9.83192063,21.5384615 C10.1011514,21.5384615 10.3319206,21.4230769 10.5242283,21.2307692 L15.5242283,15.8076923 C15.6780745,15.6153846 15.7934591,15.3846154 15.7934591,15.1538462 L15.7934591,7.88461538 C15.7934591,7.34615385 15.3703822,6.92307692 14.8319206,6.92307692 C14.2934591,6.92307692 13.8703822,7.34615385 13.8703822,7.88461538 L13.8703822,14.8076923 L9.1011514,19.9230769 C8.75499756,20.3076923 8.75499756,20.9230769 9.13961294,21.2692308 C9.33192063,21.4615385 9.6011514,21.5384615 9.83192063,21.5384615 Z" fill="#FAF3EE"></path>
                            </g>
                        </g>
                    </g>
                </g>
            </g>
        </g>
    </g>
</svg>