<?xml version="1.0" encoding="UTF-8"?>
<svg width="38px" height="33px" viewBox="0 0 38 33" version="1.1" xmlns="http://www.w3.org/2000/svg" xmlns:xlink="http://www.w3.org/1999/xlink">
    <!-- Generator: Sketch 41.2 (35397) - http://www.bohemiancoding.com/sketch -->
    <title>icon-download</title>
    <desc>Created with Sketch.</desc>
    <defs></defs>
    <g id="Page-1" stroke="none" stroke-width="1" fill="none" fill-rule="evenodd">
        <g id="Desktop-HD-Copy" transform="translate(-373.000000, -525.000000)" fill="#FFFFFF">
            <g id="Group-9" transform="translate(63.000000, 491.000000)">
                <g id="icon-download" transform="translate(310.000000, 34.000000)">
                    <g id="Group">
                        <g id="Shape">
                            <path d="M17.660617,26.598 C17.7125745,26.6534681 18.342383,27.2271064 19.1147234,27.2271064 C19.8870638,27.2271064 20.4557872,26.7180638 20.5765532,26.5895745 L28.3898298,18.777 C29.1670851,17.9997447 29.1670851,16.7394255 28.3905319,15.9621702 C27.6132766,15.1842128 26.3522553,15.1849149 25.5757021,15.9614681 L21.1052553,20.4312128 L21.1052553,2.2973617 C21.1052553,1.19853191 20.2135532,0.306829787 19.1147234,0.306829787 C18.0158936,0.306829787 17.1241915,1.19853191 17.1241915,2.2973617 L17.1241915,20.4305106 L12.6551489,15.9614681 C11.8778936,15.1849149 10.6175745,15.1849149 9.83961702,15.9614681 C9.0623617,16.7387234 9.0623617,17.9990426 9.83961702,18.777 L17.660617,26.598 Z"></path>
                            <path d="M37.9998511,22.2799149 L37.9998511,22.1170213 L37.9837021,22.1170213 C37.8980426,21.3706596 37.2717447,20.79 36.503617,20.79 C35.7354894,20.79 35.1091915,21.3706596 35.024234,22.1170213 L35.0151064,22.1170213 L35.0151064,22.2054894 C35.0137021,22.2328723 35.0066809,22.2588511 35.0066809,22.2869362 C35.0066809,22.3150213 35.0137021,22.341 35.0151064,22.368383 L35.0151064,26.037 C35.0151064,28.0633404 33.852383,29.7751277 32.4755106,29.7751277 L5.75604255,29.7751277 C4.37917021,29.7751277 3.21574468,28.0633404 3.21574468,26.037 L3.21574468,22.1170213 L3.19959574,22.1170213 C3.11393617,21.3706596 2.4876383,20.79 1.71951064,20.79 C0.951382979,20.79 0.325787234,21.3706596 0.24012766,22.1170213 L0.231,22.1170213 L0.231,22.2019787 C0.229595745,22.230766 0.222574468,22.2581489 0.222574468,22.2869362 C0.222574468,22.3157234 0.229595745,22.3431064 0.231,22.3718936 L0.231,26.037 C0.231,29.744234 2.71021277,32.7605745 5.75674468,32.7605745 L32.4762128,32.7605745 C35.5227447,32.7605745 38.0012553,29.744234 38.0012553,26.037 L38.0012553,22.2939574 C38.0012553,22.2918511 38.0019574,22.2890426 38.0019574,22.2869362 C38.0019574,22.2848298 37.9998511,22.2820213 37.9998511,22.2799149 Z"></path>
                        </g>
                    </g>
                </g>
            </g>
        </g>
    </g>
</svg>