<?xml version="1.0" encoding="UTF-8"?>
<svg width="40px" height="40px" viewBox="0 0 40 40" version="1.1" xmlns="http://www.w3.org/2000/svg" xmlns:xlink="http://www.w3.org/1999/xlink">
    <!-- Generator: Sketch 41.2 (35397) - http://www.bohemiancoding.com/sketch -->
    <title>icon-time</title>
    <desc>Created with Sketch.</desc>
    <defs></defs>
    <g id="Page-1" stroke="none" stroke-width="1" fill="none" fill-rule="evenodd">
        <g id="Desktop-HD-Copy" transform="translate(-352.000000, -725.000000)">
            <g id="Group-9" transform="translate(63.000000, 491.000000)">
                <g id="Group-8" transform="translate(289.000000, 230.000000)">
                    <g id="icon-time" transform="translate(0.000000, 4.000000)">
                        <g id="Group">
                            <g id="Shape">
                                <path d="M20,39.7435897 C25.0769231,39.7435897 30.1025641,37.7948718 33.9487179,33.9487179 C41.6410256,26.2564103 41.6410256,13.7435897 33.9487179,6.05128205 L33.9487179,6.05128205 C26.2564103,-1.64102564 13.7435897,-1.64102564 6.05128205,6.05128205 C-1.64102564,13.7435897 -1.64102564,26.2564103 6.05128205,33.9487179 C9.8974359,37.7948718 14.9230769,39.7435897 20,39.7435897 Z" fill="#FFFFFF"></path>
                                <path d="M13.1092275,28.7179487 C13.4682019,28.7179487 13.7758942,28.5641026 14.0323044,28.3076923 L20.6989711,21.0769231 C20.9040993,20.8205128 21.0579455,20.5128205 21.0579455,20.2051282 L21.0579455,10.5128205 C21.0579455,9.79487179 20.4938429,9.23076923 19.7758942,9.23076923 C19.0579455,9.23076923 18.4938429,9.79487179 18.4938429,10.5128205 L18.4938429,19.7435897 L12.1348685,26.5641026 C11.6733301,27.0769231 11.6733301,27.8974359 12.1861506,28.3589744 C12.4425608,28.6153846 12.8015352,28.7179487 13.1092275,28.7179487 Z" fill="#21D370"></path>
                            </g>
                        </g>
                    </g>
                </g>
            </g>
        </g>
    </g>
</svg>