<?xml version="1.0" encoding="UTF-8"?>
<svg width="402px" height="33px" viewBox="0 0 402 33" version="1.1" xmlns="http://www.w3.org/2000/svg" xmlns:xlink="http://www.w3.org/1999/xlink">
    <!-- Generator: Sketch 41.2 (35397) - http://www.bohemiancoding.com/sketch -->
    <title>Group 4</title>
    <desc>Created with Sketch.</desc>
    <defs></defs>
    <g id="Page-1" stroke="none" stroke-width="1" fill="none" fill-rule="evenodd">
        <g id="Desktop-HD-Copy-5" transform="translate(-71.000000, -253.000000)">
            <g id="Group-4" transform="translate(71.000000, 253.000000)">
                <g id="noun_945298_cc" transform="translate(0.000000, 5.000000)" fill="#21D370">
                    <g id="Group">
                        <g transform="translate(0.081550, 0.096456)" id="Shape">
                            <path d="M26.5118881,19.5932426 C25.0615621,19.5932426 23.8808496,20.7689053 23.8808496,22.2130406 L23.8808496,27.4836774 C23.8808496,27.684399 23.7361938,27.7662854 23.6737972,27.788894 C23.6140726,27.8142656 23.4551589,27.8595306 23.3105031,27.7182505 L16.598011,21.0345534 C15.6642197,20.1047681 14.4239402,19.5932426 13.1069992,19.5932426 L2.72188946,19.5932426 C1.22042385,19.5932426 0,18.3780386 0,16.8830373 L0,2.71021208 C0,1.21520401 1.22042385,0 2.72188946,0 L26.5148069,0 C28.0162725,0 29.2366963,1.21520401 29.2366963,2.71021208 L29.2366963,16.8830373 C29.2337776,18.3780386 28.0133537,19.5932426 26.5118881,19.5932426 Z"></path>
                        </g>
                    </g>
                </g>
                <g id="Group-8" transform="translate(269.000000, 0.000000)">
                    <text id="20-min" font-family="NexaLight, Nexa Light" font-size="30" font-weight="normal" fill="#21D370">
                        <tspan x="37.19" y="29">20 min</tspan>
                    </text>
                    <g id="noun_1014486_cc">
                        <g id="Group">
                            <g id="Shape">
                                <path d="M15,29.8076923 C18.8076923,29.8076923 22.5769231,28.3461538 25.4615385,25.4615385 C31.2307692,19.6923077 31.2307692,10.3076923 25.4615385,4.53846154 C19.6923077,-1.23076923 10.3076923,-1.23076923 4.53846154,4.53846154 C-1.23076923,10.3076923 -1.23076923,19.6923077 4.53846154,25.4615385 C7.42307692,28.3461538 11.1923077,29.8076923 15,29.8076923 Z" fill="#21D370"></path>
                                <path d="M9.83192063,21.5384615 C10.1011514,21.5384615 10.3319206,21.4230769 10.5242283,21.2307692 L15.5242283,15.8076923 C15.6780745,15.6153846 15.7934591,15.3846154 15.7934591,15.1538462 L15.7934591,7.88461538 C15.7934591,7.34615385 15.3703822,6.92307692 14.8319206,6.92307692 C14.2934591,6.92307692 13.8703822,7.34615385 13.8703822,7.88461538 L13.8703822,14.8076923 L9.1011514,19.9230769 C8.75499756,20.3076923 8.75499756,20.9230769 9.13961294,21.2692308 C9.33192063,21.4615385 9.6011514,21.5384615 9.83192063,21.5384615 Z" fill="#FAF3EE"></path>
                            </g>
                        </g>
                    </g>
                </g>
                <g id="Group-7" transform="translate(141.000000, 0.000000)" fill="#21D370">
                    <text id="5" font-family="NexaLight, Nexa Light" font-size="30" font-weight="normal">
                        <tspan x="37.945" y="29">5</tspan>
                    </text>
                    <g id="noun_901947_cc" transform="translate(0.000000, 4.000000)">
                        <g id="Group">
                            <g transform="translate(0.000000, 0.197774)" id="Shape">
                                <path d="M7.8094493,0.11704186 C5.88424,0.11704186 3.96163535,0.883237209 2.49937178,2.41355349 C-0.425186267,5.47413023 -0.421837429,10.3873581 2.49937178,13.4503566 L14.4276819,25.960062 C14.5448282,26.0839056 14.7077841,26.1540719 14.8782555,26.1540719 C15.0487269,26.1540719 15.2116829,26.0839056 15.3288291,25.960062 C19.3087361,21.7950078 23.2868763,17.6252093 27.2668143,13.460062 C30.1913724,10.3994326 30.1913724,5.48386977 27.2668143,2.42324341 C24.3422871,-0.637379845 19.5615423,-0.637448062 16.6369842,2.42324341 L14.8830927,4.25463876 L13.1292322,2.41355349 C11.6669377,0.88324031 9.7346586,0.11704186 7.8094493,0.11704186 L7.8094493,0.11704186 Z"></path>
                            </g>
                        </g>
                    </g>
                </g>
                <text id="10" font-family="NexaLight, Nexa Light" font-size="30" font-weight="normal" fill="#21D370">
                    <tspan x="40.055" y="31">10</tspan>
                </text>
            </g>
        </g>
    </g>
</svg>