<?xml version="1.0" encoding="UTF-8"?>
<svg width="152px" height="42px" viewBox="0 0 152 42" version="1.1" xmlns="http://www.w3.org/2000/svg" xmlns:xlink="http://www.w3.org/1999/xlink">
    <!-- Generator: Sketch 41.2 (35397) - http://www.bohemiancoding.com/sketch -->
    <title>Group 2</title>
    <desc>Created with Sketch.</desc>
    <defs></defs>
    <g id="Page-1" stroke="none" stroke-width="1" fill="none" fill-rule="evenodd">
        <g id="Desktop-HD" transform="translate(-1226.000000, -639.000000)">
            <g id="Group-2" transform="translate(1227.000000, 639.000000)">
                <path d="M0,20 L150,20" id="Line-Copy" stroke="#21D370" stroke-width="2" stroke-linecap="square"></path>
                <g id="Group-4" transform="translate(54.000000, 0.000000)">
                    <circle id="Oval-Copy" fill="#FC376A" cx="21" cy="21" r="21"></circle>
                    <path d="M24.7649441,20.5445113 C24.3166105,20.5445113 23.8866671,20.7688806 23.5698239,21.1681942 L16.9509132,29.5041916 C16.6337172,29.9030611 16.4554887,30.4443108 16.4554887,31.0087116 C16.4554887,31.5731123 16.6337172,32.114362 16.9509132,32.5132315 L23.5726392,40.8456848 C24.2342224,41.6641562 25.2962963,41.6579384 25.9518039,40.831756 C26.6073114,40.0055737 26.6109989,38.6685374 25.9600642,37.8366449 L20.5348661,31.0069395 L25.9600642,24.1772341 C26.2772602,23.7783645 26.4554887,23.2371148 26.4554887,22.6727141 C26.4554887,22.1083134 26.2772602,21.5670637 25.9600642,21.1681942 C25.643221,20.7688806 25.2132776,20.5445113 24.7649441,20.5445113 Z" id="Shape-Copy-3" fill="#FFFFFF" transform="translate(21.455489, 31.000000) rotate(-90.000000) translate(-21.455489, -31.000000) "></path>
                    <path d="M24.7649441,3.54451129 C24.3166105,3.54451129 23.8866671,3.76888064 23.5698239,4.16819415 L16.9509132,12.5041916 C16.6337172,12.9030611 16.4554887,13.4443108 16.4554887,14.0087116 C16.4554887,14.5731123 16.6337172,15.114362 16.9509132,15.5132315 L23.5726392,23.8456848 C24.2342224,24.6641562 25.2962963,24.6579384 25.9518039,23.831756 C26.6073114,23.0055737 26.6109989,21.6685374 25.9600642,20.8366449 L20.5348661,14.0069395 L25.9600642,7.17723405 C26.2772602,6.77836453 26.4554887,6.23711482 26.4554887,5.6727141 C26.4554887,5.10831338 26.2772602,4.56706367 25.9600642,4.16819415 C25.643221,3.76888064 25.2132776,3.54451129 24.7649441,3.54451129 Z" id="Shape-Copy-4" fill="#FFFFFF" transform="translate(21.455489, 14.000000) rotate(-270.000000) translate(-21.455489, -14.000000) "></path>
                </g>
            </g>
        </g>
    </g>
</svg>